<svg width="150" height="150" viewBox="0 0 800 800" xmlns="http://www.w3.org/2000/svg">
  <defs>
    <pattern id="stripe-pattern" patternUnits="userSpaceOnUse" width="40" height="40" patternTransform="rotate(45)">
      <rect width="20" height="40" fill="#b347ff" x="0" y="0"></rect>
      <rect width="20" height="40" fill="none" x="20" y="0"></rect>
    </pattern>
  </defs>
  <path d="M355 115 C 283 136, 265 145, 235 190 C 183 271, 183 398, 183 483 L 225 483 L 225 688 L 305 688 L 305 612 L 370 612 L 370 715 L 450 715 L 450 483 L 552 483 L 552 390 L 450 390 L 450 175 L 355 115 Z M 465 179 C 514 208, 586 285, 586 350 C 586 400, 570 444, 527 444 C 484 444, 450 400, 450 350 C 450 285, 465 208, 465 179 Z" fill="url(#stripe-pattern)"/>
</svg> 